<?xml version="1.0" encoding="UTF-8"?>
<svg id="uuid-373a85c0-250b-46c6-965b-272122b68537" data-name="Lower Ground Floor" xmlns="http://www.w3.org/2000/svg" viewBox="0 0 1200 1200">
  <polygon id="uuid-88f84bc1-bf94-4081-b0fb-b8216b98414d" data-name="floor" points="1130.43 918.57 1130.43 965.27 1051.99 965.27 1051.99 1127.91 356.77 1010.13 356.77 722.31 321.24 688.24 298.13 710.41 263.24 676.97 286.37 654.79 231.2 601.89 208.07 624.07 185.17 602.11 208.32 579.91 161.23 534.77 138.1 556.95 115.36 535.14 138.51 512.94 69.57 446.84 461.92 72.09 619.36 72.09 1051.99 246.38 1051.99 668.84 1075.91 668.84 1075.91 792.66 1051.99 792.66 1051.99 918.57 1130.43 918.57" fill="#666"/>
  <g id="uuid-e697da40-ff0c-45b0-b1a8-088378080180" data-name="rooms">
    <polygon points="304.29 248.58 358.56 300.62 403.38 257.64 349.11 205.6 304.29 248.58" fill="#61b9e8"/>
    <polygon points="280.72 271.19 334.99 323.22 357.2 301.92 302.93 249.89 280.72 271.19" fill="#61b9e8"/>
    <polygon points="372.97 182.72 427.24 234.76 449.74 213.18 395.47 161.14 372.97 182.72" fill="#61b9e8"/>
    <polygon points="350.48 204.29 404.74 256.33 425.88 236.07 371.61 184.03 350.48 204.29" fill="#61b9e8"/>
    <polygon points="396.84 159.84 451.1 211.88 458.43 204.85 481.83 227.29 520.31 190.39 496.91 167.95 496.91 167.95 442.64 115.91 396.84 159.84" fill="#61b9e8"/>
    <polygon points="281.51 316.34 311.83 345.42 328.9 329.06 298.57 299.98 281.51 316.34" fill="#61b9e8"/>
    <polygon points="119.86 425.43 174.13 477.47 193.8 458.61 139.53 406.58 119.86 425.43" fill="#61b9e8"/>
    <polygon points="97.06 447.3 151.32 499.34 172.77 478.78 118.5 426.74 97.06 447.3" fill="#61b9e8"/>
    <polygon points="140.89 405.27 195.16 457.31 229.34 424.53 175.07 372.5 140.89 405.27" fill="#61b9e8"/>
    <polygon points="498.27 166.64 519.19 146.58 464.92 94.55 444 114.61 498.27 166.64" fill="#61b9e8"/>
    <polygon points="278.78 316.34 256.2 294.69 211.59 337.47 234.17 359.12 278.78 316.34" fill="#61b9e8"/>
    <polygon points="235.53 360.43 265.86 389.51 310.47 346.73 280.14 317.65 235.53 360.43" fill="#61b9e8"/>
    <polygon points="176.43 371.19 230.7 423.23 264.5 390.82 210.23 338.78 176.43 371.19" fill="#61b9e8"/>
    <polygon points="290.53 499.78 295.64 494.88 288.82 488.34 302.67 475.06 309.48 481.6 314.29 476.99 292.12 455.72 268.35 478.51 290.53 499.78" fill="#61b9e8"/>
    <polygon points="198.06 500.76 243.79 544.59 266.18 523.12 220.46 479.28 198.06 500.76" fill="#61b9e8"/>
    <polygon points="266.99 477.21 290.76 454.41 278.61 442.76 268.58 433.14 244.8 455.94 266.99 477.21" fill="#61b9e8"/>
    <polygon points="221.82 477.97 267.55 521.82 289.17 501.09 243.44 457.24 221.82 477.97" fill="#61b9e8"/>
    <polygon points="370.81 422.23 385.37 408.27 369.78 393.32 355.22 407.29 363.01 414.76 370.81 422.23" fill="#61b9e8"/>
    <polygon points="330.65 355.88 306.31 379.22 314.2 386.78 324.52 376.88 341.84 393.49 355.86 380.05 330.65 355.88" fill="#61b9e8"/>
    <polygon points="451.3 403.13 445.56 397.62 435.23 407.53 440.97 413.03 451.3 403.13" fill="#61b9e8"/>
    <polygon points="496.14 451.53 504.93 443.11 483.18 422.25 460.7 443.81 482.45 464.67 492.51 455.01 492.51 455.01 496.14 451.53" fill="#61b9e8"/>
    <polygon points="529.65 399.39 507.02 399.39 484.54 420.94 506.29 441.8 529.65 419.42 529.65 399.39" fill="#61b9e8"/>
    <polygon points="333.87 631.26 355.91 610.14 345.1 599.77 339.63 605.02 323.07 620.9 333.87 631.26" fill="#61b9e8"/>
    <polygon points="425.41 496.61 446.91 475.99 437 466.49 415.5 487.11 425.41 496.61" fill="#61b9e8"/>
    <polygon points="414.14 485.8 435.64 465.19 425.54 455.5 404.04 476.12 414.14 485.8" fill="#61b9e8"/>
    <polygon points="437.68 508.38 437.68 508.38 459.19 487.76 448.27 477.3 426.77 497.92 437.68 508.38" fill="#61b9e8"/>
    <polygon points="424.18 454.2 405.38 436.17 383.88 456.79 402.68 474.82 424.18 454.2" fill="#61b9e8"/>
    <polygon points="436.32 509.69 382.52 458.09 360.2 479.5 414 531.09 436.32 509.69" fill="#61b9e8"/>
    <polygon points="245.4 589.58 299.21 641.17 320.34 620.9 266.54 569.31 245.4 589.58" fill="#61b9e8"/>
    <polygon points="291.3 545.57 345.1 597.16 345.1 597.16 366.99 576.18 313.18 524.58 291.3 545.57" fill="#61b9e8"/>
    <polygon points="289.93 546.87 267.9 568 321.7 619.6 343.74 598.47 289.93 546.87" fill="#61b9e8"/>
    <polygon points="412.64 532.4 358.83 480.81 337.29 501.46 391.09 553.06 412.64 532.4" fill="#61b9e8"/>
    <polygon points="389.73 554.37 335.93 502.77 314.54 523.28 368.35 574.87 387.05 556.94 387.04 556.94 389.73 554.37" fill="#61b9e8"/>
    <rect x="620.31" y="773.12" width="46.26" height="14.25" fill="#61b9e8"/>
    <rect x="677.88" y="789.22" width="18.45" height="17.69" fill="#61b9e8"/>
    <polygon points="712.56 789.22 712.56 799.2 723.84 799.2 733.73 799.2 733.73 789.22 712.56 789.22" fill="#61b9e8"/>
    <rect x="990.29" y="727.38" width="39.71" height="17.45" fill="#61b9e8"/>
    <rect x="863.51" y="801.05" width="34.14" height="15.1" fill="#61b9e8"/>
    <polygon points="909.03 818.28 909.03 818.28 910.69 816.69 918.17 809.51 909.35 801.05 899.58 801.05 899.58 818.01 899.58 841.59 899.58 884.54 899.58 886.39 899.58 1036.19 988.34 1051.7 988.34 843.44 953.57 843.44 933.98 824.67 924.83 833.45 917.65 826.55 909.02 818.29 909.03 818.28" fill="#61b9e8"/>
    <path d="M378.68,936.12c0,40.26,34.16,73.01,76.14,73.01h211.75v-94.51h44.06v-71.28h-201.92v21.61h-130.04v71.16Z" fill="#61b9e8"/>
    <polygon points="850.12 843.44 850.12 821.33 832.88 821.33 832.88 801.05 795.7 801.05 795.7 843.34 788.18 843.34 788.18 859.5 806.96 859.5 806.96 884.54 897.65 884.54 897.65 843.44 850.12 843.44" fill="#61b9e8"/>
    <polygon points="1029.99 827.62 1029.99 775.23 1014.06 775.23 1014.06 814.35 1027.87 827.62 1029.99 827.62" fill="#61b9e8"/>
    <rect x="735.65" y="801.05" width="22.36" height="30.42" fill="#61b9e8"/>
    <rect x="422.61" y="635.01" width="46.26" height="40.5" fill="#61b9e8"/>
    <polygon points="335.46 675.91 376.76 715.53 376.76 676.81 355.64 656.57 335.46 675.91" fill="#61b9e8"/>
    <polygon points="378.12 635.01 357 655.26 378.12 675.51 420.69 675.51 420.69 635.01 378.12 635.01" fill="#61b9e8"/>
    <polygon points="452.87 363.16 459.74 356.57 444.54 341.99 437.67 348.58 452.87 363.16" fill="#61b9e8"/>
    <polygon points="469.76 379.36 476.63 372.77 461.11 357.88 454.24 364.47 469.76 379.36" fill="#61b9e8"/>
    <polygon points="440.62 335.62 484.56 377.76 506.13 357.07 460.1 312.93 458.66 311.55 440.62 328.85 440.62 335.62" fill="#61b9e8"/>
    <polygon points="636.42 294.57 651.84 294.57 651.84 314.92 636.42 314.92 636.42 333.51 707.22 333.51 712.66 333.51 712.66 244.97 636.42 244.97 636.42 279.15 636.42 294.57" fill="#61b9e8"/>
    <rect x="620.27" y="511.18" width="46.3" height="42.29" fill="#61b9e8"/>
    <rect x="620.27" y="481.81" width="46.3" height="27.52" fill="#61b9e8"/>
    <rect x="620.27" y="630.44" width="46.3" height="85.88" fill="#61b9e8"/>
    <rect x="620.27" y="555.32" width="46.3" height="30.18" fill="#61b9e8"/>
    <rect x="620.27" y="587.36" width="46.3" height="41.24" fill="#61b9e8"/>
    <rect x="508.72" y="723.87" width="66.56" height="39.74" fill="#61b9e8"/>
    <polygon points="508.72 511.48 508.72 592.06 575.28 592.06 575.28 532.63 553.75 511.48 508.72 511.48" fill="#61b9e8"/>
    <rect x="508.72" y="593.91" width="66.56" height="128.12" fill="#61b9e8"/>
    <polygon points="508.72 801.44 575.28 801.44 575.28 773.12 575.28 765.46 508.72 765.46 508.72 801.44" fill="#61b9e8"/>
    <polygon points="468.88 677.36 422.61 677.36 420.69 677.36 378.68 677.36 378.68 719.99 378.68 758.5 468.88 758.5 468.88 677.36" fill="#61b9e8"/>
    <rect x="378.68" y="760.35" width="90.19" height="102.75" fill="#61b9e8"/>
    <rect x="712.56" y="717.73" width="45.45" height="42.36" fill="#61b9e8"/>
    <polygon points="760.31 717.73 759.94 717.73 759.94 760.09 827.25 760.09 827.25 717.73 760.31 717.73" fill="#61b9e8"/>
    <rect x="897.9" y="717.73" width="44.33" height="42.36" fill="#61b9e8"/>
    <rect x="829.18" y="717.73" width="66.79" height="42.36" fill="#61b9e8"/>
    <polygon points="758.38 585.51 758.38 555.31 709.15 555.31 709.15 575.06 721.16 575.06 721.16 585.51 723.18 585.51 724.15 585.51 758.38 585.51" fill="#61b9e8"/>
    <rect x="709.15" y="519.74" width="49.23" height="33.72" fill="#61b9e8"/>
    <polygon points="758.38 587.36 724.15 587.36 724.15 612.75 709.15 612.75 709.15 628.56 758.38 628.56 758.38 587.36" fill="#61b9e8"/>
    <rect x="709.15" y="630.41" width="49.23" height="42.77" fill="#61b9e8"/>
    <polygon points="473.54 281.05 463.22 290.95 459.7 309.93 512.86 360.89 530.21 360.91 530.21 323.71 521.27 314.92 508.84 314.92 473.54 281.05" fill="#61b9e8"/>
    <polygon points="473.93 237.48 468.72 232.49 447.17 253.14 509.64 313.07 520.71 313.07 520.71 192.62 481.83 229.9 473.93 237.48" fill="#61b9e8"/>
    <polygon points="360.4 348.43 389.45 376.05 396.71 369.05 384.23 357.31 392.2 349.71 404.47 361.54 411.91 354.35 383.04 326.54 375.61 333.73 387.45 344.99 379.61 352.57 367.85 341.24 360.4 348.43" fill="#61b9e8"/>
    <polygon points="535.16 491.44 560.59 491.44 560.59 478.8 575.69 464.33 569.57 458.46 535.16 491.44" fill="#61b9e8"/>
    <polygon points="666.57 460.68 629 424.64 595.51 456.77 619.7 479.96 666.57 479.96 666.57 460.68" fill="#61b9e8"/>
    <polygon points="559.14 175.65 559.14 360.91 568.56 360.91 605.39 325.59 605.39 277.3 611.19 277.3 611.19 200.45 618.4 200.45 618.4 118.83 559.14 175.65" fill="#61b9e8"/>
    <polygon points="1029.98 519.74 1029.98 258.92 887.39 202.22 620.33 94.63 620.33 114.37 620.33 116.98 620.33 200.45 636.42 200.45 636.42 243.13 714.59 243.13 714.59 335.36 709.15 335.36 709.15 517.89 760.31 517.89 760.31 673.18 760.31 675.03 760.31 715.88 942.23 715.88 980.73 715.88 982.66 715.88 1030 715.88 1030 519.74 1029.98 519.74" fill="#61b9e8"/>
    <polygon points="944.16 760.09 953.82 760.09 970.28 744.82 980.73 744.82 980.73 717.73 944.16 717.73 944.16 760.09" fill="#61b9e8"/>
    <polygon points="758.38 675.03 709.15 675.03 709.15 692.85 712.56 692.85 712.56 715.88 758.38 715.88 758.38 675.03" fill="#61b9e8"/>
    <text transform="translate(776.45 456.08)" fill="#fff" font-family="JetBrainsMonoRoman-Medium, &apos;JetBrains Mono&apos;" font-size="36" font-variation-settings="&apos;wght&apos; 500" font-weight="500"><tspan x="0" y="0">CARREFOUR</tspan></text>
    <text transform="translate(726.34 539.81)" fill="#fff" font-family="JetBrainsMonoRoman-Medium, &apos;JetBrains Mono&apos;" font-size="8.25" font-variation-settings="&apos;wght&apos; 500" font-weight="500"><tspan x="0" y="0">MAC</tspan></text>
    <text transform="translate(723.86 568.45)" fill="#fff" font-family="JetBrainsMonoRoman-Medium, &apos;JetBrains Mono&apos;" font-size="8.25" font-variation-settings="&apos;wght&apos; 500" font-weight="500"><tspan x="0" y="0">NCBA</tspan><tspan x="0" y="9.9">LOOP</tspan></text>
    <text transform="translate(726.9 611.76)" fill="#fff" font-family="JetBrainsMonoRoman-Medium, &apos;JetBrains Mono&apos;" font-size="8.25" font-variation-settings="&apos;wght&apos; 500" font-weight="500"><tspan x="0" y="0">SHAMII</tspan><tspan x="-9.9" y="9.9">BOUTIQUE</tspan></text>
    <text transform="translate(716.44 651.79)" fill="#fff" font-family="JetBrainsMonoRoman-Medium, &apos;JetBrains Mono&apos;" font-size="8.25" font-variation-settings="&apos;wght&apos; 500" font-weight="500"><tspan x="0" y="0">SAMSUNG</tspan></text>
    <text transform="translate(720.8 738.91)" fill="#fff" font-family="JetBrainsMonoRoman-Medium, &apos;JetBrains Mono&apos;" font-size="8.25" font-variation-settings="&apos;wght&apos; 500" font-weight="500"><tspan x="0" y="0">KNIGHT</tspan><tspan x="2.48" y="9.9">FRANK</tspan></text>
    <text transform="translate(771.32 742.78)" fill="#fff" font-family="JetBrainsMonoRoman-Medium, &apos;JetBrains Mono&apos;" font-size="8.25" font-variation-settings="&apos;wght&apos; 500" font-weight="500"><tspan x="0" y="0">VITU ZOTE</tspan></text>
    <text transform="translate(851.13 736.67)" fill="#fff" font-family="JetBrainsMonoRoman-Medium, &apos;JetBrains Mono&apos;" font-size="8.25" font-variation-settings="&apos;wght&apos; 500" font-weight="500"><tspan x="0" y="0">JAFFS</tspan><tspan x="-4.95" y="9.9">OPTICAL</tspan></text>
    <text transform="translate(909.8 736.75)" fill="#fff" font-family="JetBrainsMonoRoman-Medium, &apos;JetBrains Mono&apos;" font-size="8.25" font-variation-settings="&apos;wght&apos; 500" font-weight="500"><tspan x="0" y="0">CYCLE</tspan><tspan x="2.48" y="9.9">LAND</tspan></text>
    <text transform="translate(947.75 730.56)" fill="#fff" font-family="JetBrainsMonoRoman-Medium, &apos;JetBrains Mono&apos;" font-size="7" font-variation-settings="&apos;wght&apos; 500" font-weight="500"><tspan x="0" y="0">HOLIDAY</tspan><tspan x="2.1" y="8.4">BAZAAR</tspan></text>
    <text transform="translate(995.46 734.44) scale(.82 1)" fill="#fff" font-family="JetBrainsMonoRoman-Medium, &apos;JetBrains Mono&apos;" font-size="6" font-variation-settings="&apos;wght&apos; 500" font-weight="500"><tspan x="0" y="0">CLEANPOINT</tspan><tspan x="-1.8" y="7.2">DRYCLEANERS</tspan></text>
  </g>
  <g id="uuid-eaa07d66-0b9b-4cab-a7c0-2c7a50810306" data-name="toilets">
    <polygon points="301.93 294.14 279.35 272.49 257.57 293.38 280.14 315.03 301.93 294.14" fill="#fdff7f"/>
    <polygon points="495.24 455.01 532.83 491.06 543.03 481.29 568.21 457.15 530.62 421.1 495.24 455.01" fill="#fdff7f"/>
    <polygon points="682.51 1009.13 723.84 1009.13 723.84 927.17 682.51 927.15 682.51 1009.13" fill="#fdff7f"/>
  </g>
  <g id="uuid-65e4299d-9481-40cf-bde9-cfa022313ba9" data-name="reserved">
    <polygon points="531.58 399.39 531.58 419.42 569.57 455.85 570.94 457.15 578.41 464.33 562.52 479.57 562.52 491.98 568.7 497.91 555.51 510.56 577.21 531.88 577.21 771.27 618.38 771.27 666.57 771.27 666.57 718.17 618.34 718.17 618.34 481.27 592.79 456.77 627.64 423.33 602.68 399.39 531.58 399.39" fill="#404040"/>
    <polygon points="897.65 1035.86 897.65 886.39 805.03 886.39 805.03 861.35 786.25 861.35 786.25 841.49 793.77 841.49 793.77 801.05 759.94 801.05 759.94 833.33 733.73 833.33 733.73 801.05 725.77 801.05 725.77 925.32 725.77 1009.13 744.54 1009.13 897.65 1035.86" fill="#404040"/>
    <polygon points="618.4 94.16 467.25 94.16 521.92 146.58 499.63 167.95 522.64 190.01 522.64 313.62 532.14 322.95 532.14 360.91 557.22 360.91 557.22 174.89 618.4 116.22 618.4 94.16" fill="#404040"/>
    <polygon points="634.49 244.97 634.49 243.13 634.49 202.3 620.33 202.3 618.4 202.3 613.12 202.3 613.12 277.3 634.49 277.3 634.49 244.97" fill="#404040"/>
    <polygon points="460.55 489.07 449.69 499.48 458.01 507.47 468.88 497.05 460.55 489.07" fill="#404040"/>
    <polygon points="982.66 744.82 988.36 744.82 988.36 725.53 1030 725.53 1030 717.73 982.66 717.73 982.66 744.82" fill="#404040"/>
    <polygon points="897.65 818.11 897.65 841.59 852.04 841.59 852.04 801.05 861.58 801.05 861.58 818.11 897.65 818.11" fill="#404040"/>
  </g>
  <g id="uuid-1714323b-433e-4e80-bb56-36b61d91e75d" data-name="atms">
    <polygon points="308.12 482.91 302.67 477.68 291.55 488.34 297 493.57 308.12 482.91" fill="#f5e"/>
    <polygon points="398.34 595.75 405.83 588.57 391 574.34 383.51 581.53 398.34 595.75" fill="#f5e"/>
    <rect x="834.81" y="801.05" width="15.31" height="18.43" fill="#f5e"/>
    <rect x="709.15" y="576.91" width="10.08" height="8.59" fill="#f5e"/>
    <rect x="636.42" y="296.42" width="13.49" height="16.65" fill="#f5e"/>
    <polygon points="919.54 810.82 911.75 818.29 924.83 830.83 932.62 823.36 919.54 810.82" fill="#f5e"/>
  </g>
  <g id="uuid-6b3bb255-45f1-48d6-b2f8-89bcb2073ed8" data-name="ramps">
    <polygon points="444.96 297.74 400.26 340.6 384.32 325.32 429.02 282.45 444.96 297.74" fill="#83fd86"/>
    <polygon points="462.22 534.52 414.31 580.46 399.46 566.23 447.37 520.29 462.22 534.52" fill="#83fd86"/>
  </g>
  <g id="uuid-547a060b-5878-42d5-a268-91eae4c8cf5a" data-name="stairs">
    <rect x="684.32" y="693.39" width="27.28" height="32.18" fill="#b07738"/>
    <polygon points="606.37 378.13 582.55 378.13 582.55 365.94 606.37 343.01 606.37 378.13" fill="#b07738"/>
    <polygon points="236.72 539.1 221.36 553.83 188.07 521.91 203.44 507.18 236.72 539.1" fill="#b07738"/>
    <polygon points="313.68 447.13 299.79 460.44 285.9 447.13 299.79 433.81 313.68 447.13" fill="#b07738"/>
  </g>
  <g id="uuid-c58bacb0-a7ce-49d7-9ba3-267c0116534f" data-name="escalators">
    <polygon points="981.53 792.28 960.58 812.38 950.24 802.46 971.19 782.37 981.53 792.28" fill="#83fd86"/>
    <rect x="543.18" y="379.87" width="79.24" height="16.1" fill="#83fd86"/>
    <rect x="667.53" y="676.89" width="16.79" height="75.99" fill="#83fd86"/>
  </g>
  <g id="uuid-70aa4cce-94dd-4421-bca8-d6af3b9125af" data-name="elevators">
    <polygon points="454.57 595.33 461.63 588.56 445.43 573.02 440.6 577.66 438.37 579.8 454.57 595.33" fill="#9000f4"/>
    <rect x="1061.72" y="744.9" width="13.22" height="46.84" fill="#9000f4"/>
    <polygon points="722.22 587.36 721.16 587.36 719.23 587.36 709.15 587.36 709.15 610.91 722.22 610.91 722.22 587.36" fill="#9000f4"/>
  </g>
</svg>